<?xml version="1.0" encoding="UTF-8"?><svg id="File_not_Found" xmlns="http://www.w3.org/2000/svg" viewBox="0 0 883.72 799.29"><defs><style>.cls-1{letter-spacing:-.04em;}.cls-2{fill:#fff;}.cls-3{fill:#bdcfd3;}.cls-4{fill:#579fae;}.cls-5{letter-spacing:0em;}.cls-6{fill:#9acedb;}.cls-7{fill:#687dd3;font-family:Swiss721BT-Black, 'Swis721 Blk BT';font-size:78.16px;}.cls-8{fill:#d8dff3;}.cls-9{fill:#ffc1c2;}.cls-10{fill:#32477b;}.cls-11{fill:#4863c9;}.cls-12{fill:#dae8eb;}.cls-13{fill:#9bcfdc;}.cls-14{fill:#cad4ef;}.cls-15{letter-spacing:0em;}.cls-16{fill:#ed9c9c;}.cls-17{fill:#e29474;}.cls-18{fill:#e6edfa;}.cls-19{fill:#687ed4;}</style></defs><g id="File_not_Found-2"><g id="Background"><path class="cls-18" d="M811.53,536.5c-.72,4.92-1.33,7.98-1.48,8.68-3.77,17.8-9.91,34.83-18.1,51.03h0c-2.34,4.64-4.84,9.2-7.51,13.7-7.62,12.89-16.56,25.21-26.61,36.95-6.03,7.05-12.47,13.88-19.28,20.5-29.54,28.74-65.93,53.32-105.86,73.2-7.5,3.74-15.13,7.3-22.86,10.7-24.35,10.71-49.73,19.73-75.46,26.97-5.33,1.5-10.67,2.92-16.02,4.26-9.29,2.34-18.62,4.44-27.93,6.29-12.58,2.51-25.13,4.58-37.6,6.2-15.97,2.08-31.8,3.4-47.32,3.97-17.65,.65-36.33,.35-55.58-.94-9.49-.62-19.12-1.5-28.83-2.63-.02,.01-.04,.01-.07,0-8.61-.99-17.29-2.17-26-3.56-2.38-.38-4.76-.78-7.15-1.18-16.15-2.77-32.35-6.23-48.38-10.4-.29-.07-.58-.14-.87-.23-.16-.03-.32-.07-.48-.12-.45-.11-.9-.23-1.35-.36-14.28-3.78-28.39-8.13-42.19-13.07-9.71-3.47-19.27-7.24-28.6-11.31-4.44-1.93-8.82-3.93-13.15-6-3.96-1.89-7.88-3.84-11.74-5.85-22.81-11.84-43.79-25.69-61.92-41.65-8.3-7.31-16.01-15.07-23.02-23.27-10.83-12.68-20.01-26.45-27.17-41.34-3.53-7.32-6.56-14.91-9.06-22.78-1.03-3.23-1.97-6.51-2.83-9.86-3.77-14.73-5.91-30.53-6.32-46.62-.1-3.77-.1-7.56,0-11.36,.33-13.2,1.83-26.48,4.55-39.38,7.19-34.15,22.9-65.74,48.07-86.81,43.34-36.3,110.25-37.62,151.7-34.16,16.15,1.35,28.44,3.42,33.96,4.44,8.21,1.51,16.25,3.38,24.38,5.34,30.13,7.25,61.53,15.63,107.25,10.49,4.76-.54,21.35-2.54,51.72-10.99,27.95-7.78,49.02-15.87,66.31-23.71,.96-.44,1.91-.87,2.85-1.3,2.43-1.13,4.77-2.24,7.06-3.35,.58-.28,1.17-.57,1.74-.85,4.61-2.26,8.96-4.49,13.12-6.67h.02c.15-.08,.29-.16,.44-.24,.57-.3,1.13-.59,1.69-.89,.06-.03,.11-.05,.16-.09,6.06-3.19,11.75-6.28,17.31-9.21,1.15-.61,2.3-1.21,3.44-1.8,.8-.41,1.6-.83,2.4-1.23,.55-.28,1.1-.56,1.64-.84h.01c3.34-1.68,6.66-3.3,10.05-4.84,5.27-2.41,10.68-4.63,16.44-6.63,4.54-1.59,9.29-3.03,14.37-4.32,50.36-12.81,125.67-8.72,173.58,35.62,39.02,36.13,48.44,88.39,49.18,127.37,.35,19.01-1.35,34.87-2.7,44.13Z"/><path class="cls-8" d="M490.42,508.94v279.84c-28.67,5.73-57.28,9.17-84.92,10.17-73.02,2.67-163.61-10.73-239.5-43.79-12.76-5.56-25.1-11.67-36.87-18.36-.01,0-.01-.01-.02-.01-7.23-4.11-14.24-8.43-21.01-12.98-6.19-4.15-12.17-8.49-17.91-13.01-3.77-2.98-7.44-6.03-11-9.17-27.44-24.15-48.37-53.14-59.25-87.37-1.02-3.23-1.97-6.51-2.82-9.85-3.78-14.74-5.92-30.54-6.33-46.62v-11.37c.33-13.2,1.83-26.47,4.55-39.37H88.64v101.07h12.55v-201.52h77.85v303.22h47.71v-250.48l185.83,92.91v-43.31c0-20.11,16.3-36.42,36.42-36.42h5c20.12,0,36.42,16.31,36.42,36.42Z"/><path class="cls-8" d="M811.52,506.74v29.77c-.71,4.91-1.32,7.97-1.47,8.67-25.14,118.56-155.61,203.15-291.7,237.32V436.74h77.84v261.16h12.56v-156.67l77.84-34.18v-.31c0-17.25,6.99-32.87,18.3-44.17,11.3-11.3,26.92-18.3,44.17-18.3,34.5,0,62.46,27.97,62.46,62.47Z"/><path class="cls-3" d="M784.44,609.91c-7.63,12.89-16.56,25.22-26.62,36.95v-22.08c0-8.21,11.25-14.87,25.12-14.87h1.49Z"/><path class="cls-14" d="M295.02,791.82c-2.38-.37-4.76-.77-7.15-1.18-31.46-5.4-63.15-13.39-93.27-24.17l45.48-122.02,54.93,147.38Z"/><path class="cls-14" d="M152.85,749.16c-38.07-18.18-71.76-41.61-96.68-70.78l35.15-94.3,61.53,165.08Z"/><path class="cls-14" d="M791.95,596.22c-2.34,4.63-4.84,9.19-7.51,13.69-7.63,12.89-16.56,25.22-26.62,36.95-6.03,7.05-12.47,13.89-19.28,20.5-52.58,51.15-126.83,89.12-204.19,110.88-5.33,1.49-10.67,2.91-16.01,4.26-9.29,2.34-18.62,4.44-27.94,6.29-12.57,2.51-25.13,4.58-37.6,6.2,1.83-1.51,3.76-2.87,5.73-4.07,11.52-7.01,24.99-10.73,35.63-19.01-5.52-4.21-1.16-13,3.82-17.83,11.81-11.46,26.1-20.37,41.59-25.92-2.5-19.52,18.93-37.92,37.85-32.5,.25-9.47,8.05-18.18,17.43-19.45,9.39-1.27,19.23,5.03,21.99,14.09,.8-6.84,2.73-13.53,5.69-19.75,2.59-5.44,10.68-5.03,12.59,.7,.01,.04,.02,.08,.04,.11,6.27-12.62,26-15.56,35.67-5.3-3.38-12.57,11.76-25.68,23.72-20.55-5.74-8.42-7.29-20.19-1.88-28.82,5.42-8.63,18.56-12.07,26.43-5.6-5.59-9.54,1.45-23.77,12.43-25.1,5.6-.68,11.16,1.48,16.81,1.62,2.82,.07,5.9-.71,8.29-2.22,6.25-3.95,14.42-3.36,19.4,2.09,3.37,3.68,5.93,8.19,7.75,12.99,2.81-1.32,5.49-2.79,8.13-4.23Z"/><path class="cls-18" d="M281.92,350.43c-33.65-7.25-69.28-21.18-85.85-51.35-5.95-10.83-8.95-24.07-4.58-35.64,5.87-15.53,23.18-23.73,39.6-26.11,20.38-2.96,41.69,.77,59.85,10.49,24.94,13.35,44.93,37.85,72.94,41.8,21.43,3.02,42.23-6.89,62.86-13.39,20.64-6.5,45.88-8.69,61.4,6.39,3.71,3.61,4.33,8.4,4.69,10.36,3.03,16.5-13.32,31.64-19.23,37.12-8.07,7.47-26.8,21.59-85.43,26.32-31.55,2.54-63.72,3.18-106.25-5.98Z"/><path class="cls-12" d="M201.02,351.08H4.14c-2.63-4.55-4.14-9.84-4.14-15.48,0-17.11,13.87-30.98,30.99-30.98,5.17,0,10.03,1.27,14.32,3.51,1.91-24.57,22.45-43.91,47.51-43.91,26.32,0,47.66,21.34,47.66,47.66,0,6.86-1.45,13.38-4.06,19.27,21.51,6.82,42.61,15.17,64.61,19.93Z"/><path class="cls-8" d="M623.15,412.7h105.95c1.42-2.45,2.23-5.29,2.23-8.33,0-9.21-7.47-16.67-16.67-16.67-2.78,0-5.4,.68-7.7,1.89-1.03-13.22-12.08-23.63-25.57-23.63-14.16,0-25.65,11.48-25.65,25.65,0,3.69,.78,7.2,2.18,10.37-11.58,3.67-22.93,8.17-34.77,10.73Z"/><path class="cls-12" d="M526.4,278.77h268.62c3.59-6.21,5.65-13.42,5.65-21.12,0-23.34-18.93-42.27-42.28-42.27-7.05,0-13.69,1.73-19.53,4.79-2.61-33.52-30.63-59.91-64.82-59.91-35.91,0-65.02,29.11-65.02,65.02,0,9.36,1.98,18.25,5.54,26.3-29.35,9.31-58.14,20.7-88.15,27.19Z"/></g><g id="Human"><path class="cls-19" d="M496.05,787.63c-1.88,.39-3.75,.78-5.63,1.15h-.01c-1.57,.32-3.14,.62-4.71,.92-1.12,.21-2.24,.43-3.36,.63-1.35,.25-2.71,.5-4.06,.73-.99,.19-1.97,.36-2.95,.52-1.25,.22-2.5,.43-3.75,.63-1.52,.25-3.03,.5-4.55,.74-.15,.02-.29,.04-.44,.06-1.47,.23-2.94,.45-4.4,.67-3.13,.46-6.25,.89-9.37,1.3-2,.26-3.99,.51-5.98,.74-1.77,.21-3.54,.41-5.3,.6-1,.12-2,.22-2.99,.31-.78,.09-1.56,.17-2.34,.24-.96,.1-1.92,.19-2.87,.27-1.28,.13-2.57,.24-3.85,.34-.26,.03-.52,.05-.77,.07-1.83,.16-3.66,.3-5.48,.43-.1,.01-.21,.02-.31,.02-1.7,.12-3.4,.24-5.1,.34-.29,.02-.58,.04-.87,.05-1.45,.09-2.89,.17-4.33,.24-2.39,.13-4.77,.23-7.14,.32-6.02,.22-12.15,.33-18.39,.33-1.76,0-3.53-.01-5.3-.03-1.58-.01-3.18-.03-4.77-.07-.68-.01-1.36-.02-2.04-.04-1.41-.03-2.83-.07-4.26-.11-.07,0-.14,0-.21-.01-1.87-.05-3.74-.12-5.62-.2-3.43-.14-6.88-.31-10.35-.51-.2-.01-.4-.03-.59-.04-.59-.03-1.17-.07-1.76-.11-1.46-.09-2.93-.18-4.4-.29-1.35-.09-2.7-.19-4.06-.3-2.29-.17-4.58-.36-6.87-.57-.75-.06-1.51-.13-2.26-.2-.88-.08-1.77-.17-2.66-.25-.66-.07-1.33-.13-1.99-.2-3.96-.4-7.93-.84-11.92-1.32-1.75-.21-3.5-.42-5.25-.65-1.25-.16-2.5-.33-3.74-.5-.99-.13-1.97-.27-2.96-.41-3.69-.51-7.38-1.07-11.07-1.65-.01,0-.02,0-.03-.01-1.18-.18-2.36-.38-3.54-.57-1.19-.2-2.38-.4-3.58-.6-1.15-.2-2.3-.4-3.45-.61-2.35-.41-4.7-.84-7.06-1.3-1.15-.21-2.29-.43-3.43-.66-.92-.17-1.84-.35-2.75-.54h0l2-29.3h0l1.1-15.95h22.92l88.87-.02h3.82l16.21-.02h85.25v.02l1.9,18.27,1.89,18.25v.12l.18,1.71h0l.73,7.02Z"/><polygon class="cls-11" points="491.35 742.23 273.18 758.22 274.27 742.28 491.35 742.23"/><polygon class="cls-11" points="385.27 780.47 389.08 780.49 388.89 742.19 385.07 742.17 385.27 780.47"/><path class="cls-11" d="M393.42,769.01c3.85,.02,6.99-1.12,9.38-3.4,7.51-7.18,4.16-23.05,4.01-23.72l-3.72,.78c.03,.14,3.05,14.45-2.93,20.16-2.64,2.52-6.87,3.01-12.57,1.46l-.96,3.69c2.47,.67,4.74,1.01,6.8,1.02Z"/><path class="cls-11" d="M272.46,784.5c5.66,.02,10.35-1.86,13.95-5.62,10.84-11.3,7.9-35.66,7.77-36.69l-3.82,.43c.03,.24,2.84,23.6-6.75,33.59-3.27,3.41-7.54,4.84-13.05,4.37l-.27,3.83c.74,.06,1.46,.09,2.16,.1Z"/><path class="cls-11" d="M491.15,780.93c1.08,0,2.2-.11,3.36-.35l-.77-3.73c-3.39,.7-6.2,.06-8.59-1.96-9.25-7.8-8.79-32.45-8.79-32.7l-3.79-.11c-.02,1.09-.48,26.76,10.16,35.73,2.45,2.07,5.28,3.11,8.43,3.12Z"/><path class="cls-6" d="M589.74,591.52l-68.37,55.17-29.53-59.05v154.62h-217.55v-156.95l-33.41,53.61-67.6-61.38,67.82-109.56c1.37-2.21,2.88-4.31,4.51-6.27,10.52-12.66,26.2-20.14,42.91-20.14h187.33c17.09,0,33.04,7.82,43.49,20.87,2.12,2.63,4,5.47,5.63,8.5l64.77,120.58Z"/><path class="cls-10" d="M440.25,342.65s4.75,22,.6,26.34-20.53-38.05-.6-26.34Z"/><path class="cls-9" d="M378.49,316.8l56.19,16.77c22.71,92.05-17.48,91.48-17.48,91.48l1.34,14.27c.13,1.38,.16,2.76,.1,4.14-.74,16.58-14.78,29.42-31.36,28.67h0c-16.58-.74-29.41-14.78-28.67-31.36l2.76-61.75-10.78-.48h0c-9.03-.4-16.01-8.05-15.61-17.07h0c.03-.59,.08-1.18,.16-1.77,1.46-10.69,11.31-18.18,22.01-16.72l5.65,.77,15.69-26.95Z"/><path class="cls-10" d="M437.14,343.27c-.11,0-.18,0-.23,.01-19.03,1.08-41.7-2.74-51.93-4.74-3.01-.59-5.96,1.06-7.18,3.88-2.69,6.23-7.21,11.83-10.78,15.64-1.81,1.94-5.06,.53-4.91-2.12l.54-9.57c.08-1.48-.99-2.78-2.46-2.98l-3.04-.41c-10.7-1.46-20.55,6.02-22.01,16.71-.08,.59-.13,1.18-.16,1.78-.01,.25-.02,.49-.02,.74,0,8.69,6.85,15.94,15.63,16.33l10.78,.48-1.17,26.05c-62.78-71.92-13.07-107.37-13.07-107.37-.11-6.1,5.03-7.9,9.71-8.27,3.26-.26,6.46,.63,9.31,2.22,9.93,5.54,26.41-5.86,43.73-10.24,6.63-1.67,31-7.83,41.29,3.04,13.98,14.78-.94,57.97-14.03,58.82Z"/><path class="cls-16" d="M344.07,363.64c-.02-.05-1.57-5.56,1.18-8.78,1.83-2.14,5.23-2.92,10.14-2.32l.37-3.02c-5.99-.73-10.31,.4-12.84,3.38-3.8,4.49-1.86,11.31-1.77,11.6l2.92-.86Z"/><polygon class="cls-16" points="429.65 382.63 419.88 361.56 417.12 362.84 425.66 381.25 414.19 387.12 415.57 389.82 429.65 382.63"/><path class="cls-10" d="M432.58,361.16c.21,2.15,1.4,3.79,2.65,3.67,1.25-.13,2.1-1.97,1.89-4.12-.05-.44-.12-.87-.25-1.25-.18-.65-.47-1.21-.82-1.62-.93-.06-1.88-.04-2.8,.03-.29,.41-.5,.96-.61,1.59-.09,.52-.11,1.09-.06,1.69Z"/><path class="cls-10" d="M387.69,349.9c-.09-.46,.21-.92,.67-1.01l16.71-3.46c1.77-.37,3.55,.56,4.27,2.21l.34,.79c.16,.36,.23,.75,.2,1.14-.09,1.34-1.25,2.36-2.6,2.27l-18.81-1.25c-.39-.02-.72-.31-.79-.69Z"/><path class="cls-10" d="M442.33,347.75c.04-.41-.26-.78-.68-.82l-14.88-1.45c-1.57-.15-3.04,.81-3.51,2.32l-.23,.72c-.11,.33-.13,.68-.07,1.02,.21,1.16,1.31,1.93,2.47,1.72l16.27-2.84c.33-.06,.59-.33,.62-.67Z"/><path class="cls-16" d="M418.56,439.51c-11.8-1.52-22.7-7.1-30.83-15.78,9.04,3.47,29.48,1.32,29.48,1.32l1.36,14.46Z"/><path class="cls-10" d="M514.66,266.46c-5.08-1.8-10.13-1.52-14.72,.05-2.43,.84-3.54,3.66-2.33,5.92l.04,.08c.97,1.82,3.1,2.6,5.07,1.99,2.55-.8,5.1-.9,7.66,0,4.65,1.66,6.33,5.54,4.81,9.82-2.44,6.9-13.97,8.14-19.16,16.73-.48,.8-.71,1.67-.71,2.54,0,2.01,1.23,3.93,3.29,4.67,2.2,.78,4.71-.05,5.86-2.08,4.81-8.39,17.41-8.84,21.03-19.02,3.48-9.79-1.41-17.34-10.85-20.69Zm-18.38,48.2c-3.79-1.35-7.78,.61-9.23,4.69-1.42,4.01,.43,8.05,4.23,9.4,3.79,1.35,7.78-.61,9.2-4.63,1.45-4.08-.41-8.12-4.21-9.46Z"/><path class="cls-10" d="M283.24,307.23c-3.59,1.21-6.24,3.55-8.1,6.4-.98,1.51-.37,3.55,1.28,4.27l.06,.03c1.32,.58,2.83,.09,3.66-1.1,1.06-1.54,2.42-2.7,4.23-3.31,3.29-1.1,5.89,.32,6.9,3.33,1.64,4.87-4.18,10.54-3.33,17.52,.08,.65,.33,1.23,.71,1.7,.87,1.11,2.38,1.64,3.84,1.15,1.55-.52,2.57-2.07,2.33-3.68-.98-6.71,5.78-12.41,3.37-19.59-2.32-6.91-8.28-8.96-14.94-6.72Zm10.72,34.55c-2.67,.9-4.02,3.7-3.06,6.58,.95,2.83,3.72,4.26,6.4,3.35,2.67-.9,4.02-3.7,3.07-6.53-.96-2.88-3.74-4.3-6.42-3.4Z"/><path class="cls-16" d="M419.62,403.75l.67-2.66c-3.42-.86-6.93-1.53-10.41-1.99-3.43-.46-6.94-.73-10.4-.81l-.06,2.74c3.36,.07,6.76,.34,10.1,.78,3.39,.45,6.79,1.1,10.11,1.94Z"/><path class="cls-10" d="M423.83,359.55s.07,0,.1,0l15.88-.71c.6-.03,1.06-.53,1.03-1.13-.03-.6-.54-1.06-1.13-1.03l-15.88,.71c-.6,.03-1.06,.53-1.03,1.13,.03,.56,.48,1.01,1.03,1.03Z"/><path class="cls-10" d="M399.96,361.41c.21,2.15,1.4,3.79,2.65,3.67,1.25-.13,2.1-1.97,1.89-4.12-.05-.44-.12-.87-.25-1.25-.18-.65-.47-1.21-.82-1.62-.93-.06-1.88-.04-2.8,.03-.29,.41-.5,.96-.61,1.59-.09,.52-.11,1.09-.06,1.69Z"/><path class="cls-10" d="M391.52,359.99s.07,0,.1,0l15.88-.71c.6-.03,1.06-.53,1.03-1.13-.03-.6-.54-1.06-1.13-1.03l-15.88,.71c-.6,.03-1.06,.53-1.03,1.13,.03,.56,.48,1.01,1.03,1.03Z"/><polygon class="cls-4" points="491.84 548.79 521.36 646.69 491.84 587.64 491.84 548.79"/><polygon class="cls-4" points="274.28 548.79 240.87 638.92 274.28 585.31 274.28 548.79"/><rect class="cls-4" x="490.63" y="538.69" width="2.42" height="48.95"/><rect class="cls-4" x="273.08" y="538.69" width="2.42" height="48.95"/><path class="cls-9" d="M233.75,632.46l-20.16,26.9c-9.36,12.48-27.84,13.17-38.09,1.41L47.25,513.71l40.94-36.39,145.56,155.15Z"/><path class="cls-9" d="M522.87,645.31l19.37,26.23c9.52,12.89,28.55,13.59,38.98,1.43l126.48-147.34-38.16-34.42-146.67,154.09Z"/><g><rect class="cls-19" x="690.45" y="310.82" width="152.29" height="203.57" rx="11.65" ry="11.65" transform="translate(396.36 -375.33) rotate(36.54)"/><path class="cls-11" d="M756.09,516.96c-30.2-21.54-60.39-43.08-90.59-64.61-3.49-2.49-3.7-6.88-.54-9.81,41.8-38.61,75.97-84.72,100.75-135.94,1.85-3.83,6.04-4.93,9.43-2.42l85.12,63.08c3.32,2.46,4.65,7.48,2.93,11.31-23.14,51.58-55.46,98.19-95.24,137.5-3.03,3-8.39,3.38-11.86,.9Z"/><path class="cls-2" d="M753.85,510.46l-84.95-62.95c-3.39-2.51-3.55-6.84-.43-9.73,40.31-37.28,73.29-81.77,97.22-131.19,1.86-3.83,6.04-4.93,9.43-2.42l84.95,62.95c3.38,2.51,4.69,7.68,2.83,11.51-23.94,49.41-56.91,93.91-97.22,131.19-3.12,2.89-8.45,3.15-11.84,.64Z"/><rect class="cls-11" x="801.72" y="323.19" width="44.68" height="23.75" rx="3.59" ry="3.59" transform="translate(361.49 -424.79) rotate(36.54)"/><path class="cls-11" d="M837.4,388.68l-66.59-49.35c-1.5-1.11-1.53-2.99-.42-4.5h0c1.12-1.5,2.93-2.02,4.43-.91l66.59,49.35c1.49,1.1,2.1,3.41,.98,4.92h0c-1.11,1.51-3.5,1.6-4.99,.49Z"/><path class="cls-11" d="M820.78,416.98l-66.59-49.35c-1.5-1.11-1.53-3-.42-4.5h0c1.12-1.5,2.93-2.02,4.43-.91l66.59,49.35c1.49,1.1,2.1,3.41,.98,4.92h0c-1.11,1.51-3.5,1.6-4.99,.49Z"/><path class="cls-11" d="M801.35,443.2l-66.59-49.35c-1.5-1.11-1.53-3-.42-4.5h0c1.12-1.5,2.93-2.02,4.43-.91,22.2,16.45,44.39,32.9,66.59,49.35,1.49,1.1,2.1,3.41,.98,4.92h0c-1.11,1.51-3.5,1.6-4.99,.49Z"/></g><path class="cls-9" d="M733.31,514.62c-8.68,7.57-20.41,16.13-30.25,17.45-18.16,2.43-35.53-34.78-35.53-34.78,0,0-.11-9.48,5.92-27.03,1.65-4.8,3.76-10.21,6.45-16.19,1.26-2.8,4.33-4.35,7.34-3.67l13.84,3.09,3.95,.88c.22,.05,.43,.11,.63,.2,2.27,.94,3.16,3.87,1.54,5.87-1.72,2.13-4.68,4.28-9.75,4.91-1.06,.14-2.21,.21-3.46,.19,0,0,.34,1.46,.62,3.55,.54,4.33,.76,11.4-3.22,13.75,0,.01,.01,.02,.02,.02,.03,.03,.05,.05,.08,.07l31.93,24.29,3.41,2.6,6.47,4.8Z"/><polygon class="cls-16" points="581.13 584.11 531.94 657.59 522.87 645.31 581.13 584.11"/><polygon class="cls-16" points="180.16 575.34 226.92 641.57 233.75 632.46 180.16 575.34"/><g><rect class="cls-13" x="53.43" y="379.64" width="13.7" height="131.81" rx="5.51" ry="5.51" transform="translate(370.87 120.46) rotate(51.4)"/><rect class="cls-10" x="32.4" y="412.75" width="23.89" height="91.03" rx="6.05" ry="6.05" transform="translate(374.82 137.7) rotate(51.4)"/><circle class="cls-13" cx="131.93" cy="388.35" r="45.17"/><circle class="cls-10" cx="131.93" cy="388.35" r="37.08"/><path class="cls-2" d="M104.18,379.04c-.57-.71-.73-1.7-.33-2.59,1.49-3.38,6.07-11.72,16.28-16,9.9-4.16,18.84-1.83,22.22-.64,1.3,.46,2,1.9,1.53,3.21-.46,1.31-1.9,2-3.21,1.53-2.83-1-10.32-2.95-18.6,.53-8.54,3.59-12.38,10.56-13.63,13.4-.56,1.27-2.05,1.84-3.32,1.28-.38-.17-.7-.42-.95-.73Z"/><path class="cls-2" d="M103.83,400.49s-.08-.1-.11-.15c-4.7-6.88-2.49-14.24-2.39-14.55,.41-1.33,1.82-2.07,3.15-1.65,1.32,.41,2.06,1.81,1.66,3.14-.07,.23-1.55,5.41,1.74,10.23,.78,1.15,.49,2.71-.66,3.49-1.09,.75-2.57,.51-3.38-.51Z"/></g><path class="cls-9" d="M96.95,486.37l-6.51-6.36c-1.46-1.43-2.44-3.28-2.78-5.3-1.71-9.99-7.94-41.11-19.46-42.95l-4.66-4.67c-2.04-3.44-8.02-4.23-11.36-1.94-2.89,1.97-5.76,5.9-4.22,9.05l.14-.39s-13.63,.15-15.04,7.74c0,0-11.97-1.5-13.7,8.59-1.64-.12-7.01-.32-10.62,3.34,0,0-1.69,1.71-2.48,4.06-.61,1.82-1.97,7.97,18.84,33.25,5.24,6.36,7.94,9.62,11.94,13.33,4.75,4.41,6.87,5.47,10.76,9.94,1.72,1.97,11.19,10.64,11.19,10.64l10.84,13.07,27.14-51.4Z"/><rect class="cls-17" x="60.49" y="453.08" width="2.5" height="6.47" transform="translate(-228.66 98.97) rotate(-31.39)"/><path class="cls-16" d="M63.63,472.23c-.74,.76-1.62,1.4-2.67,1.85-2.86,1.23-6.36,.73-10.41-1.5l1.2-2.19c3.34,1.84,6.1,2.3,8.22,1.39,2.75-1.18,3.99-4.54,4.48-6.44l2.42,.63c-.52,2.01-1.49,4.45-3.24,6.25Z"/><path class="cls-16" d="M70.61,473.1c-2.34-.88-4.39-3.21-6.08-6.91-.88-1.92-1.66-4.21-2.32-6.81-.51-1.98-.85-3.76-1.07-5.01l-7.7,4.38c-2.97,1.97-6.09,2.92-9.21,2.77-7.59-.38-12.4-7.07-12.61-7.36l-.77-1.09,36.68-22.36,1.3,2.13-34.31,20.92c1.56,1.73,5.13,5.03,9.83,5.27,2.57,.12,5.19-.69,7.78-2.4l10.97-6.26,.23,1.86s.38,2.99,1.29,6.53c.62,2.46,1.35,4.61,2.17,6.39,1.41,3.09,2.98,4.97,4.69,5.62l-.88,2.34Z"/><path class="cls-16" d="M49.96,479.01c-.23,.24-.49,.47-.77,.68-2.35,1.77-5.75,1.92-10.1,.46-.04,1.77-.49,4.36-2.39,6.2-2.1,2.02-5.36,2.58-9.7,1.67l.5-2.36c3.5,.74,6.03,.39,7.52-1.04,2.2-2.11,1.58-6,1.58-6.04l-.35-2.13,2,.82c4.37,1.79,7.56,1.96,9.49,.51,2.35-1.77,2.31-5.67,2.26-6.69l-6.48-10.61,2.06-1.26,6.77,11.09,.03,.27c.03,.24,.55,5.4-2.42,8.45Z"/><rect class="cls-16" x="27.3" y="448.13" width="2.5" height="32.96" transform="translate(-248.96 90.89) rotate(-33.08)"/><rect class="cls-16" x="49.09" y="433.45" width="2.41" height="8.66" transform="translate(-220.85 90.42) rotate(-31.42)"/><path class="cls-2" d="M388.72,483.34c-18.9,0-35.18-14.6-39.57-35.51l-1.27-6.06,1.96-.41,1.27,6.06c4.2,19.97,19.67,33.92,37.61,33.92,15.97,0,30.51-11.48,36.17-28.57l3.82-11.51,1.9,.63-3.82,11.51c-5.94,17.91-21.24,29.94-38.07,29.94Z"/><path class="cls-2" d="M290.59,444.11c0,14.32-11.62,25.93-25.94,25.93-7.53,0-14.31-3.21-19.05-8.33,10.52-12.66,26.2-20.14,42.91-20.14h1.96c.08,.83,.12,1.68,.12,2.54Z"/><path class="cls-2" d="M519.34,462.44c-4.7,4.69-11.19,7.6-18.35,7.6-14.33,0-25.94-11.61-25.94-25.93,0-.86,.04-1.71,.12-2.54h.68c17.09,0,33.04,7.82,43.49,20.87Z"/><rect class="cls-2" x="213.5" y="550.28" width="2" height="91.98" transform="translate(-362.61 334.55) rotate(-45.82)"/><rect class="cls-2" x="502.09" y="601.02" width="89.09" height="2" transform="translate(-264.44 543.8) rotate(-43.65)"/><path class="cls-4" d="M274.28,610.92l13.33,70.8c4.4,23.36,23.58,41.09,47.21,43.63l157.01,16.92h-217.55v-131.35Z"/><ellipse class="cls-2" cx="443.38" cy="548.23" rx="23.47" ry="16.07"/><ellipse class="cls-6" cx="443.38" cy="548.23" rx="16.47" ry="8.68"/></g></g><text class="cls-7" transform="translate(69.74 67.17)"><tspan x="0" y="0">NO </tspan><tspan class="cls-15" x="153.56" y="0">D</tspan><tspan class="cls-1" x="214.24" y="0">AT</tspan><tspan class="cls-5" x="318" y="0">A FOUND</tspan></text></svg>